<?xml version="1.0" standalone="no"?>
<!DOCTYPE svg PUBLIC "-//W3C//DTD SVG 20010904//EN"
 "http://www.w3.org/TR/2001/REC-SVG-20010904/DTD/svg10.dtd">
<svg version="1.0" xmlns="http://www.w3.org/2000/svg"
 width="656.000000pt" height="656.000000pt" viewBox="0 0 656.000000 656.000000"
 preserveAspectRatio="xMidYMid meet">
<metadata>
Created by potrace 1.14, written by Peter Selinger 2001-2017
</metadata>
<g transform="translate(0.000000,656.000000) scale(0.100000,-0.100000)"
fill="#000000" stroke="none">
<path d="M2878 6087 c-229 -226 -698 -691 -1043 -1032 -344 -341 -850 -841
-1123 -1112 l-497 -492 98 -97 99 -97 -98 -98 -98 -98 332 -328 c182 -180 611
-605 952 -943 632 -625 1050 -1039 1533 -1516 l267 -265 286 283 c157 156 419
415 582 576 163 162 592 585 952 942 360 357 792 784 960 950 239 236 301 303
290 310 -8 5 -12 10 -9 10 3 0 -34 40 -84 88 l-89 89 96 95 c53 53 96 98 96
101 0 5 12 -7 -720 717 -961 949 -1050 1039 -1050 1054 0 8 -3 16 -7 18 -9 4
-53 64 -53 73 0 26 -240 255 -268 255 -6 0 -12 4 -14 8 -1 5 -23 20 -47 34
-41 25 -326 296 -319 304 2 2 33 -7 68 -20 36 -13 88 -28 115 -32 98 -17 536
-9 629 11 11 2 35 6 51 9 26 3 98 16 175 31 14 3 39 8 55 12 17 4 34 7 39 7 5
1 11 6 13 11 2 9 -114 62 -197 90 -3 1 -16 6 -30 12 -14 6 -52 20 -85 31 -33
11 -91 33 -130 47 -38 14 -78 28 -88 30 -9 2 -22 7 -27 10 -5 3 -18 8 -28 10
-9 1 -35 8 -57 13 -77 21 -101 24 -225 27 -147 4 -238 -10 -389 -61 l-103 -35
-68 68 c-126 127 -317 313 -321 313 -2 0 -191 -186 -421 -413z m682 65 l236
-233 -56 -57 c-31 -31 -63 -67 -71 -79 -15 -21 -19 -18 -192 154 l-176 176
-223 -221 c-123 -121 -347 -343 -500 -494 -152 -150 -550 -544 -885 -875
-1131 -1119 -1227 -1213 -1235 -1211 -4 2 -39 34 -77 71 l-70 69 330 326 c182
180 494 489 694 687 712 704 1523 1507 1740 1723 178 177 223 217 235 208 8
-6 121 -116 250 -244z m50 -452 c0 -6 -10 -30 -23 -53 -27 -49 -67 -151 -73
-187 -3 -14 -9 -42 -15 -63 -5 -20 -12 -56 -15 -80 -3 -23 -7 -58 -9 -77 -20
-171 -28 -621 -10 -627 10 -3 175 277 175 297 0 5 5 10 10 10 6 0 10 9 10 19
0 11 5 23 10 26 6 4 20 28 32 53 12 26 24 49 27 52 16 14 107 215 131 287 l26
82 126 -127 c121 -122 128 -130 152 -202 48 -147 143 -301 264 -431 75 -81
446 -454 511 -514 l32 -30 -5 25 c-9 45 -68 245 -78 263 -5 9 -5 17 -1 17 7 0
460 -445 1006 -988 l197 -196 -334 -331 c-915 -905 -1605 -1587 -1854 -1833
-153 -150 -350 -346 -439 -435 l-163 -161 -182 181 c-101 100 -307 304 -458
453 -151 149 -561 554 -910 900 -349 345 -771 763 -938 927 l-303 299 151 149
c83 83 317 314 520 515 203 201 652 645 997 986 345 342 740 732 876 867 l248
245 154 -154 c85 -84 155 -158 155 -164z m375 23 l105 -107 1 -65 c1 -81 7
-169 14 -197 2 -12 2 -24 -1 -27 -3 -3 -50 39 -104 93 l-99 99 -2 91 c-2 84
-11 158 -25 203 -3 9 -3 17 1 17 3 0 53 -48 110 -107z m1285 -1263 c157 -155
450 -445 652 -646 l368 -364 -71 -67 c-39 -38 -74 -69 -79 -71 -4 -2 -132 120
-283 270 -151 150 -441 438 -645 639 l-369 365 -47 150 c-26 82 -49 155 -51
162 -3 7 -4 13 -4 15 0 1 -7 19 -15 39 -9 21 -16 43 -16 49 0 7 62 -49 138
-124 75 -74 265 -262 422 -417z m-3965 -2085 c215 -212 648 -641 964 -953 315
-312 676 -669 802 -794 l229 -227 224 222 c300 297 1369 1354 1719 1700 155
153 420 415 588 582 l307 304 76 -72 76 -73 -182 -181 c-101 -100 -319 -316
-485 -480 -166 -164 -590 -584 -943 -933 -1209 -1197 -1375 -1360 -1383 -1357
-4 1 -256 248 -560 549 -304 300 -678 671 -832 823 -154 152 -576 570 -937
927 l-658 651 76 74 76 73 227 -224 c124 -124 402 -398 616 -611z"/>
<path d="M3407 4384 c-1 -1 -42 -5 -92 -8 -49 -4 -101 -8 -115 -11 -92 -15
-91 -15 -160 -34 -54 -14 -62 -18 -170 -69 -47 -22 -110 -59 -140 -82 -65 -48
-170 -147 -170 -160 0 -4 -4 -10 -8 -12 -16 -6 -80 -102 -115 -173 -42 -83
-71 -171 -91 -269 -20 -100 -38 -306 -26 -306 3 0 5 -26 5 -58 1 -56 9 -132
20 -182 2 -14 7 -34 9 -46 2 -11 16 -56 31 -99 46 -134 115 -245 212 -342 66
-67 183 -161 183 -147 0 4 8 0 18 -9 35 -32 201 -94 327 -123 107 -24 506 -23
545 1 4 2 19 6 34 9 122 22 321 115 401 187 11 10 33 30 48 44 39 34 107 114
107 125 0 4 -21 20 -47 35 -40 24 -48 26 -57 13 -73 -100 -221 -212 -343 -261
-198 -78 -478 -93 -710 -36 -83 20 -254 93 -261 111 -2 4 -8 8 -13 8 -6 0 -15
5 -22 10 -7 6 -23 19 -37 31 -60 48 -133 127 -175 190 -40 59 -99 182 -111
228 -42 170 -47 210 -47 361 1 117 7 195 19 230 3 8 8 29 10 45 2 17 15 59 29
94 14 36 25 71 25 78 0 7 3 13 8 13 4 0 13 15 21 33 41 96 165 234 273 304 23
15 45 30 48 33 7 7 168 79 190 85 69 18 149 34 205 42 55 8 291 8 340 0 22 -4
57 -9 78 -12 20 -2 46 -9 57 -15 11 -6 20 -9 20 -6 0 8 102 -30 166 -62 92
-46 180 -120 252 -211 l19 -25 47 30 c25 16 46 32 46 35 0 7 -81 102 -113 131
-53 49 -74 65 -134 101 -155 94 -335 140 -586 150 -27 1 -49 1 -50 1z"/>
</g>
</svg>
