<svg width="48" height="47" fill="none" xmlns="http://www.w3.org/2000/svg"><path d="M40.35 23.2c.62.116 1.223.215 1.799.3a47.16 47.16 0 00-1.799.3c-3.863.723-8.503 2.113-11.22 4.83-2.716 2.717-4.107 7.357-4.83 11.22-.116.62-.215 1.223-.3 1.799a47.458 47.458 0 00-.3-1.799c-.723-3.863-2.113-8.503-4.83-11.22-2.717-2.716-7.357-4.107-11.22-4.83a47.468 47.468 0 00-1.799-.3 47.468 47.468 0 001.799-.3c3.863-.723 8.503-2.113 11.22-4.83 2.716-2.717 4.107-7.357 4.83-11.22.116-.62.215-1.223.3-1.799.085.576.184 1.18.3 1.799.723 3.863 2.113 8.503 4.83 11.22 2.717 2.716 7.357 4.107 11.22 4.83z" stroke="#000"/></svg>