<svg width="71" height="70" fill="none" xmlns="http://www.w3.org/2000/svg"><path opacity=".8" fill="#000" d="M34 0h1v20h-1z"/><path opacity=".2" fill="#000" d="M34 50h1v20h-1z"/><path opacity=".7" fill="#000" d="M51.701 3.939l.866.5-10 17.32-.866-.5z"/><path opacity=".1" fill="#000" d="M26.701 47.24l.866.5-10 17.32-.866-.5z"/><path opacity=".6" fill="#000" d="M65.061 16.2l.5.867-17.32 10-.5-.866z"/><path opacity=".05" fill="#000" d="M21.76 41.201l.5.866-17.32 10-.5-.866z"/><path opacity=".5" fill="#000" d="M70.501 33.5v1h-20v-1z"/><path opacity=".03" fill="#000" d="M20.5 33.5v1H.5v-1z"/><path opacity=".4" fill="#000" d="M66.562 51.201l-.5.866-17.32-10 .5-.866z"/><path fill="#000" d="M23.26 26.2l-.5.867-17.321-10 .5-.866z"/><path opacity=".3" fill="#000" d="M54.3 64.562l-.866.5-10-17.32.866-.5z"/><path opacity=".9" fill="#000" d="M29.3 21.26l-.866.5-10-17.321.866-.5z"/></svg>