<svg version="1.0" xmlns="http://www.w3.org/2000/svg" width="874.667" height="874.667" viewBox="0 0 656 656"><path d="M287.8 47.3c-22.9 22.6-69.8 69.1-104.3 103.2-34.4 34.1-85 84.1-112.3 111.2l-49.7 49.2 9.8 9.7 9.9 9.7-9.8 9.8-9.8 9.8 33.2 32.8c18.2 18 61.1 60.5 95.2 94.3 63.2 62.5 105 103.9 153.3 151.6l26.7 26.5 28.6-28.3c15.7-15.6 41.9-41.5 58.2-57.6C433.1 553 476 510.7 512 475s79.2-78.4 96-95c23.9-23.6 30.1-30.3 29-31-.8-.5-1.2-1-.9-1 .3 0-3.4-4-8.4-8.8l-8.9-8.9 9.6-9.5c5.3-5.3 9.6-9.8 9.6-10.1 0-.5 1.2.7-72-71.7-96.1-94.9-105-103.9-105-105.4 0-.8-.3-1.6-.7-1.8-.9-.4-5.3-6.4-5.3-7.3 0-2.6-24-25.5-26.8-25.5-.6 0-1.2-.4-1.4-.8-.1-.5-2.3-2-4.7-3.4-4.1-2.5-32.6-29.6-31.9-30.4.2-.2 3.3.7 6.8 2 3.6 1.3 8.8 2.8 11.5 3.2 9.8 1.7 53.6.9 62.9-1.1 1.1-.2 3.5-.6 5.1-.9 2.6-.3 9.8-1.6 17.5-3.1 1.4-.3 3.9-.8 5.5-1.2 1.7-.4 3.4-.7 3.9-.7.5-.1 1.1-.6 1.3-1.1.2-.9-11.4-6.2-19.7-9-.3-.1-1.6-.6-3-1.2s-5.2-2-8.5-3.1-9.1-3.3-13-4.7c-3.8-1.4-7.8-2.8-8.8-3-.9-.2-2.2-.7-2.7-1-.5-.3-1.8-.8-2.8-1-.9-.1-3.5-.8-5.7-1.3-7.7-2.1-10.1-2.4-22.5-2.7-14.7-.4-23.8 1-38.9 6.1l-10.3 3.5-6.8-6.8C349.4 24.6 330.3 6 329.9 6c-.2 0-19.1 18.6-42.1 41.3zm68.2-6.5l23.6 23.3-5.6 5.7c-3.1 3.1-6.3 6.7-7.1 7.9-1.5 2.1-1.9 1.8-19.2-15.4l-17.6-17.6-22.3 22.1c-12.3 12.1-34.7 34.3-50 49.4-15.2 15-55 54.4-88.5 87.5C56.2 315.6 46.6 325 45.8 324.8c-.4-.2-3.9-3.4-7.7-7.1l-7-6.9 33-32.6c18.2-18 49.4-48.9 69.4-68.7 71.2-70.4 152.3-150.7 174-172.3 17.8-17.7 22.3-21.7 23.5-20.8.8.6 12.1 11.6 25 24.4zm5 45.2c0 .6-1 3-2.3 5.3-2.7 4.9-6.7 15.1-7.3 18.7-.3 1.4-.9 4.2-1.5 6.3-.5 2-1.2 5.6-1.5 8-.3 2.3-.7 5.8-.9 7.7-2 17.1-2.8 62.1-1 62.7 1 .3 17.5-27.7 17.5-29.7 0-.5.5-1 1-1 .6 0 1-.9 1-1.9 0-1.1.5-2.3 1-2.6.6-.4 2-2.8 3.2-5.3 1.2-2.6 2.4-4.9 2.7-5.2 1.6-1.4 10.7-21.5 13.1-28.7l2.6-8.2 12.6 12.7c12.1 12.2 12.8 13 15.2 20.2 4.8 14.7 14.3 30.1 26.4 43.1 7.5 8.1 44.6 45.4 51.1 51.4l3.2 3-.5-2.5c-.9-4.5-6.8-24.5-7.8-26.3-.5-.9-.5-1.7-.1-1.7.7 0 46 44.5 100.6 98.8l19.7 19.6-33.4 33.1C484.1 454 415.1 522.2 390.2 546.8c-15.3 15-35 34.6-43.9 43.5L330 606.4l-18.2-18.1c-10.1-10-30.7-30.4-45.8-45.3-15.1-14.9-56.1-55.4-91-90-34.9-34.5-77.1-76.3-93.8-92.7l-30.3-29.9L66 315.5c8.3-8.3 31.7-31.4 52-51.5s65.2-64.5 99.7-98.6c34.5-34.2 74-73.2 87.6-86.7l24.8-24.5 15.4 15.4C354 78 361 85.4 361 86zm37.5-2.3L409 94.4l.1 6.5c.1 8.1.7 16.9 1.4 19.7.2 1.2.2 2.4-.1 2.7-.3.3-5-3.9-10.4-9.3l-9.9-9.9-.2-9.1c-.2-8.4-1.1-15.8-2.5-20.3-.3-.9-.3-1.7.1-1.7.3 0 5.3 4.8 11 10.7zM527 210c15.7 15.5 45 44.5 65.2 64.6L629 311l-7.1 6.7c-3.9 3.8-7.4 6.9-7.9 7.1-.4.2-13.2-12-28.3-27-15.1-15-44.1-43.8-64.5-63.9l-36.9-36.5-4.7-15c-2.6-8.2-4.9-15.5-5.1-16.2-.3-.7-.4-1.3-.4-1.5 0-.1-.7-1.9-1.5-3.9-.9-2.1-1.6-4.3-1.6-4.9 0-.7 6.2 4.9 13.8 12.4 7.5 7.4 26.5 26.2 42.2 41.7zM130.5 418.5c21.5 21.2 64.8 64.1 96.4 95.3 31.5 31.2 67.6 66.9 80.2 79.4l22.9 22.7 22.4-22.2c30-29.7 136.9-135.4 171.9-170 15.5-15.3 42-41.5 58.8-58.2l30.7-30.4 7.6 7.2 7.6 7.3-18.2 18.1c-10.1 10-31.9 31.6-48.5 48s-59 58.4-94.3 93.3C347.1 628.7 330.5 645 329.7 644.7c-.4-.1-25.6-24.8-56-54.9-30.4-30-67.8-67.1-83.2-82.3-15.4-15.2-57.6-57-93.7-92.7L31 349.7l7.6-7.4 7.6-7.3 22.7 22.4c12.4 12.4 40.2 39.8 61.6 61.1z"/><path d="M340.7 217.6c-.1.1-4.2.5-9.2.8-4.9.4-10.1.8-11.5 1.1-9.2 1.5-9.1 1.5-16 3.4-5.4 1.4-6.2 1.8-17 6.9-4.7 2.2-11 5.9-14 8.2-6.5 4.8-17 14.7-17 16 0 .4-.4 1-.8 1.2-1.6.6-8 10.2-11.5 17.3-4.2 8.3-7.1 17.1-9.1 26.9-2 10-3.8 30.6-2.6 30.6.3 0 .5 2.6.5 5.8.1 5.6.9 13.2 2 18.2.2 1.4.7 3.4.9 4.6.2 1.1 1.6 5.6 3.1 9.9 4.6 13.4 11.5 24.5 21.2 34.2 6.6 6.7 18.3 16.1 18.3 14.7 0-.4.8 0 1.8.9 3.5 3.2 20.1 9.4 32.7 12.3 10.7 2.4 50.6 2.3 54.5-.1.4-.2 1.9-.6 3.4-.9 12.2-2.2 32.1-11.5 40.1-18.7 1.1-1 3.3-3 4.8-4.4 3.9-3.4 10.7-11.4 10.7-12.5 0-.4-2.1-2-4.7-3.5-4-2.4-4.8-2.6-5.7-1.3-7.3 10-22.1 21.2-34.3 26.1-19.8 7.8-47.8 9.3-71 3.6-8.3-2-25.4-9.3-26.1-11.1-.2-.4-.8-.8-1.3-.8-.6 0-1.5-.5-2.2-1-.7-.6-2.3-1.9-3.7-3.1-6-4.8-13.3-12.7-17.5-19-4-5.9-9.9-18.2-11.1-22.8-4.2-17-4.7-21-4.7-36.1.1-11.7.7-19.5 1.9-23 .3-.8.8-2.9 1-4.5.2-1.7 1.5-5.9 2.9-9.4 1.4-3.6 2.5-7.1 2.5-7.8 0-.7.3-1.3.8-1.3.4 0 1.3-1.5 2.1-3.3 4.1-9.6 16.5-23.4 27.3-30.4 2.3-1.5 4.5-3 4.8-3.3.7-.7 16.8-7.9 19-8.5 6.9-1.8 14.9-3.4 20.5-4.2 5.5-.8 29.1-.8 34 0 2.2.4 5.7.9 7.8 1.2 2 .2 4.6.9 5.7 1.5 1.1.6 2 .9 2 .6 0-.8 10.2 3 16.6 6.2 9.2 4.6 18 12 25.2 21.1l1.9 2.5 4.7-3c2.5-1.6 4.6-3.2 4.6-3.5 0-.7-8.1-10.2-11.3-13.1-5.3-4.9-7.4-6.5-13.4-10.1-15.5-9.4-33.5-14-58.6-15-2.7-.1-4.9-.1-5-.1z"/></svg>