<svg width="48" height="47" viewBox="0 0 48 47" fill="none" xmlns="http://www.w3.org/2000/svg">
<path d="M40.35 23.1998C40.9698 23.3158 41.5728 23.415 42.1487 23.5C41.5728 23.585 40.9698 23.6842 40.35 23.8002C36.4869 24.5227 31.8466 25.9135 29.1301 28.6301C26.4135 31.3466 25.0227 35.9869 24.3002 39.85C24.1842 40.4698 24.085 41.0728 24 41.6487C23.915 41.0728 23.8158 40.4698 23.6998 39.85C22.9773 35.9869 21.5865 31.3466 18.8699 28.6301C16.1534 25.9135 11.5131 24.5227 7.64996 23.8002C7.03017 23.6842 6.42718 23.585 5.85133 23.5C6.42718 23.415 7.03017 23.3158 7.64996 23.1998C11.5131 22.4773 16.1534 21.0865 18.8699 18.3699C21.5865 15.6534 22.9773 11.0131 23.6998 7.14996C23.8158 6.53017 23.915 5.92718 24 5.35133C24.085 5.92718 24.1842 6.53017 24.3002 7.14996C25.0227 11.0131 26.4135 15.6534 29.1301 18.3699C31.8466 21.0865 36.4869 22.4773 40.35 23.1998Z" stroke="black"/>
</svg>
