<svg width="71" height="70" viewBox="0 0 71 70" fill="none" xmlns="http://www.w3.org/2000/svg">
<rect opacity="0.7" x="34" width="1" height="20" fill="black"/>
<rect opacity="0.1" x="34" y="50" width="1" height="20" fill="black"/>
<rect opacity="0.6" x="51.7012" y="3.93909" width="1" height="20" transform="rotate(30 51.7012 3.93909)" fill="black"/>
<rect opacity="0.05" x="26.7012" y="47.2404" width="1" height="20" transform="rotate(30 26.7012 47.2404)" fill="black"/>
<rect opacity="0.5" x="65.0615" y="16.201" width="1" height="20" transform="rotate(60 65.0615 16.201)" fill="black"/>
<rect opacity="0.03" x="21.7598" y="41.201" width="1" height="20" transform="rotate(60 21.7598 41.201)" fill="black"/>
<rect opacity="0.4" x="70.501" y="33.5001" width="1" height="20" transform="rotate(90 70.501 33.5001)" fill="black"/>
<rect x="20.5" y="33.4999" width="1" height="20" transform="rotate(90 20.5 33.4999)" fill="black"/>
<rect opacity="0.3" x="66.5615" y="51.2013" width="1" height="20" transform="rotate(120 66.5615 51.2013)" fill="black"/>
<rect opacity="0.9" x="23.2598" y="26.2006" width="1" height="20" transform="rotate(120 23.2598 26.2006)" fill="black"/>
<rect opacity="0.2" x="54.2998" y="64.5613" width="1" height="20" transform="rotate(150 54.2998 64.5613)" fill="black"/>
<rect opacity="0.8" x="29.2998" y="21.259" width="1" height="20" transform="rotate(150 29.2998 21.259)" fill="black"/>
</svg>
